<mxfile host="app.diagrams.net" modified="2023-03-30T01:53:57.827Z" agent="Mozilla/5.0 (Windows NT 10.0; Win64; x64) AppleWebKit/537.36 (KHTML, like Gecko) Chrome/111.0.0.0 Safari/537.36" version="21.1.2" etag="UaTvfkrs8dsUgxfxQJ6n" type="device">
  <diagram id="3rk7RoWCVDCaFhKFtanB" name="Page-1">
    <mxGraphModel dx="1434" dy="756" grid="1" gridSize="10" guides="1" tooltips="1" connect="1" arrows="1" fold="1" page="1" pageScale="1" pageWidth="850" pageHeight="1100" math="0" shadow="0">
      <root>
        <mxCell id="0" />
        <mxCell id="1" parent="0" />
        <mxCell id="X1p0HkHpE5MeE4-eS_Xv-3" style="edgeStyle=orthogonalEdgeStyle;rounded=0;orthogonalLoop=1;jettySize=auto;html=1;" edge="1" parent="1" source="X1p0HkHpE5MeE4-eS_Xv-1">
          <mxGeometry relative="1" as="geometry">
            <mxPoint x="340" y="230" as="targetPoint" />
            <Array as="points">
              <mxPoint x="478" y="180" />
              <mxPoint x="340" y="180" />
              <mxPoint x="340" y="230" />
            </Array>
          </mxGeometry>
        </mxCell>
        <mxCell id="X1p0HkHpE5MeE4-eS_Xv-4" style="edgeStyle=orthogonalEdgeStyle;rounded=0;orthogonalLoop=1;jettySize=auto;html=1;" edge="1" parent="1" source="X1p0HkHpE5MeE4-eS_Xv-1">
          <mxGeometry relative="1" as="geometry">
            <mxPoint x="477.5" y="230" as="targetPoint" />
          </mxGeometry>
        </mxCell>
        <mxCell id="X1p0HkHpE5MeE4-eS_Xv-5" style="edgeStyle=orthogonalEdgeStyle;rounded=0;orthogonalLoop=1;jettySize=auto;html=1;entryX=0.5;entryY=0;entryDx=0;entryDy=0;" edge="1" parent="1" source="X1p0HkHpE5MeE4-eS_Xv-1" target="X1p0HkHpE5MeE4-eS_Xv-8">
          <mxGeometry relative="1" as="geometry">
            <mxPoint x="610" y="230" as="targetPoint" />
            <Array as="points">
              <mxPoint x="478" y="180" />
              <mxPoint x="630" y="180" />
            </Array>
          </mxGeometry>
        </mxCell>
        <mxCell id="X1p0HkHpE5MeE4-eS_Xv-1" value="Home page" style="rounded=0;whiteSpace=wrap;html=1;" vertex="1" parent="1">
          <mxGeometry x="365" y="70" width="225" height="60" as="geometry" />
        </mxCell>
        <mxCell id="X1p0HkHpE5MeE4-eS_Xv-2" value="&lt;font style=&quot;font-size: 20px;&quot;&gt;1. home&lt;br&gt;2. work and study history&lt;br&gt;3. About me Page&lt;br&gt;4. Blog page&lt;/font&gt;" style="text;html=1;strokeColor=none;fillColor=none;align=center;verticalAlign=middle;whiteSpace=wrap;rounded=0;" vertex="1" parent="1">
          <mxGeometry x="30" y="40" width="250" height="70" as="geometry" />
        </mxCell>
        <mxCell id="X1p0HkHpE5MeE4-eS_Xv-12" value="" style="edgeStyle=orthogonalEdgeStyle;rounded=0;orthogonalLoop=1;jettySize=auto;html=1;" edge="1" parent="1" source="X1p0HkHpE5MeE4-eS_Xv-6" target="X1p0HkHpE5MeE4-eS_Xv-11">
          <mxGeometry relative="1" as="geometry" />
        </mxCell>
        <mxCell id="X1p0HkHpE5MeE4-eS_Xv-6" value="Work/study" style="rounded=0;whiteSpace=wrap;html=1;" vertex="1" parent="1">
          <mxGeometry x="417.5" y="230" width="120" height="60" as="geometry" />
        </mxCell>
        <mxCell id="X1p0HkHpE5MeE4-eS_Xv-7" value="About me page, personality and interests. key skills." style="rounded=0;whiteSpace=wrap;html=1;" vertex="1" parent="1">
          <mxGeometry x="280" y="230" width="120" height="60" as="geometry" />
        </mxCell>
        <mxCell id="X1p0HkHpE5MeE4-eS_Xv-10" value="" style="edgeStyle=orthogonalEdgeStyle;rounded=0;orthogonalLoop=1;jettySize=auto;html=1;" edge="1" parent="1" source="X1p0HkHpE5MeE4-eS_Xv-8" target="X1p0HkHpE5MeE4-eS_Xv-9">
          <mxGeometry relative="1" as="geometry">
            <Array as="points">
              <mxPoint x="630" y="340" />
              <mxPoint x="630" y="340" />
            </Array>
          </mxGeometry>
        </mxCell>
        <mxCell id="X1p0HkHpE5MeE4-eS_Xv-8" value="Blog page" style="rounded=0;whiteSpace=wrap;html=1;" vertex="1" parent="1">
          <mxGeometry x="570" y="230" width="120" height="60" as="geometry" />
        </mxCell>
        <mxCell id="X1p0HkHpE5MeE4-eS_Xv-9" value="5 Blog posts each with an image and containing 5 sample text (update once submitted" style="rounded=0;whiteSpace=wrap;html=1;" vertex="1" parent="1">
          <mxGeometry x="560" y="370" width="140" height="80" as="geometry" />
        </mxCell>
        <mxCell id="X1p0HkHpE5MeE4-eS_Xv-11" value="Link to resume and a list of previous work related achievments, downloadable resume" style="rounded=0;whiteSpace=wrap;html=1;" vertex="1" parent="1">
          <mxGeometry x="417.5" y="370" width="120" height="80" as="geometry" />
        </mxCell>
      </root>
    </mxGraphModel>
  </diagram>
</mxfile>
